<?xml version="1.0"?><svg version="1.2" baseProfile="tiny-ps" viewBox="0 0 300 300" xmlns="http://www.w3.org/2000/svg" xmlns:xlink="http://www.w3.org/1999/xlink"><title>logo</title><g><g fill="#fcfdf7" transform="matrix(.1 0 0 -.1 0 300)"><path d="M0 1500V0h3000v3000H0V1500z"/></g><g fill="#cbcccb" transform="matrix(.1 0 0 -.1 0 300)"><path d="M0 1500V0h3000v3000H0V1500zm776 391 41-19 24-33 24-34v-260h-70l-5 118-5 119-28 24-28 24h-58l-28-24-28-24-5-119-5-118h-70l-3 178-2 177h78l4-10 3-11 35 15c46 20 77 19 126-3zm414-1 39-20 28-36 27-36 4-62 4-61-24-45-25-45-39-22-39-23h-108l-43 25-42 25-20 32c-11 18-23 50-26 70l-7 37 12 44 11 45 31 33c18 17 46 38 62 45l30 13 43 1h43l39-20zm398 0 42-19v-19c0-11-7-25-15-32l-15-12-27 7c-16 3-43 9-60 12l-33 5-35-35-35-35v-63l15-29c18-35 43-50 85-50h31l23 15 24 16 28-24 28-25-14-17c-7-9-26-23-41-31l-28-14h-45c-81 0-134 33-167 105-21 45-23 84-9 136l10 36 35 34c37 37 83 57 130 58l30 1 43-20zm335 1 38-19 6 14 5 14h68l-2-177-3-176-27-4-27-4-11 22-12 21-18-17-18-17-41-5c-22-3-55-3-74 1l-35 7-40 38-40 39-13 56-12 55 18 46 17 46 26 26c33 33 78 52 122 53h36l37-19zm491-12 35-24 20-36 21-37v-114l-17-35-16-35-40-29-40-29h-103l-20 15c-10 8-24 15-31 15h-12l1-57 2-58-42-3-42-3v451h78l4-10 3-11 35 16 35 15 47-3 47-4 35-24zm-371-536c4-87 7-191 7-230v-73h-78l-6 16-6 17-21-19-21-19h-125l-36 28c-44 33-65 71-73 131l-6 44 12 36c6 20 23 51 38 68l26 31 33 13c18 8 49 14 70 14h38l29-15c15-8 32-15 37-15h9v130h67l6-157zm-1262 72c43-19 61-33 83-67l17-27-27-17-27-18-21 26-21 27-36 15-36 15 5 30 4 31h13c7 0 28-7 46-15zm419-33 35-17 3-22 3-23-24-11-24-11-21 11c-11 6-37 11-57 11h-37l-29-29-29-29v-89l24-26 24-26 28-7 27-7 32 12c17 6 36 11 42 11 16 0 43-29 43-46v-14l-42-21-41-21-54 4-53 5-38 30c-20 16-45 45-55 64l-18 34 3 61 4 62 24 36 25 36 40 20 40 20h90l35-18zm343 2c37-19 62-46 84-89l16-29 1-51v-50l-22-40-23-40-36-25-37-25h-134l-39 31-38 30-17 35-18 34v47c0 26 5 59 11 75 14 37 57 82 94 99l30 13 48 1h48l32-16zm847-3c19-10 48-34 64-54l29-36 5-51 5-51-134 1c-74 1-140 1-146 1-21-1-15-21 16-52l29-29h78l20 15c26 20 48 19 68-4l16-18-6-17-6-17-39-19-38-20h-92l-37 19c-42 22-63 43-86 88l-16 32v92l14 32c15 36 47 69 91 91l30 16h100l35-19zm-1350 421-29-29-6-35-7-36 16-31 16-31 31-16 31-16 34 6 33 7 25 30 26 31v90l-29 29-29 29h-84l-28-28zm749-1-29-29v-88l16-23c9-13 31-29 49-37l32-13 24 6c32 8 59 32 74 67l13 29-10 36-9 36-27 22-27 23h-77l-29-29zm455-5-34-34v-32c0-37 15-67 44-92l21-17 41-1h40l27 28 27 28v96l-29 29-29 29h-74l-34-34zm-412-478-33-9-19-32-20-32v-28c0-15 6-40 14-56l15-27 26-12c14-7 39-12 55-12h28l31 26 30 25 7 35 6 34-12 30c-20 49-72 73-128 58zm-443-27-29-29v-42c0-23 5-50 10-61 14-25 62-49 98-49h29l25 20c14 10 31 33 38 49l12 30-12 35-11 36-26 20-26 20h-79l-29-29zm881 28c-35-14-60-39-60-59v-17l90-2c50-1 95 1 100 4l10 6-11 20c-12 23-67 59-89 58-8 0-26-5-40-10z"/></g><g fill="#76a6a4" transform="matrix(.1 0 0 -.1 0 300)"><path d="M0 1500V0h3000v3000H0V1500zm1198 392 33-15 24-31c13-17 28-50 34-73l11-42-6-41-7-41-21-32c-12-17-36-42-54-54l-33-22-44-7-44-6-36 12c-20 7-53 26-72 43l-36 32-13 32-14 32v96l19 35c10 19 34 47 54 63l35 29 34 8 33 8 35-5c19-3 50-12 68-21zm-586 6 5-13 27 13 27 12h42l42-1 32-17c17-9 42-30 55-47l23-29 3-139 4-138-44 3-43 3-2 105c-2 58-5 115-8 126l-5 22-34 16-34 16-31-11-31-11-11-20-11-20 1-98c1-54-1-105-5-114l-6-16h-78v370h78l4-12zm1006-21 27-27-27-27-27-27-26 12c-14 7-41 12-60 12h-35l-20-20c-12-12-25-33-31-47l-10-26 11-32c13-39 36-61 72-70l27-7 32 16c41 21 52 20 73-3l18-20-4-17-3-18-35-20-35-21-57 1-57 1-41 27-42 27-19 42-19 42v47c0 26 5 59 11 75 14 37 56 82 94 99l30 14 63-3 63-3 27-27zm310 17 23-16 13 17 12 17 34-4 35-3 3-182 2-183h-81l-5 14-5 14-50-21-49-21-48 13-47 12-34 32c-18 18-40 46-47 64l-14 32v82l15 36c19 45 40 70 80 94l30 19h111l22-16zm286 1 6-16 25 17 25 16 59-4 59-4 37-28 37-29 19-41 19-41v-35c0-19-5-51-10-71l-10-36-37-36-37-37-40-11-41-11-35 9c-19 6-43 14-52 17l-17 8-3-59-3-58-42-3-43-3v471h78l6-15zm-164-630v-235h-78l-6 16-6 16-23-14c-12-8-33-18-47-21l-24-6-44 10-43 9-30 22-29 22-20 41-20 41v107l25 43 25 42 37 23 37 23h103l26-17 27-17v130h90v-235zM826 1395c19-15 41-38 47-52l11-25-19-14c-10-8-26-14-36-14h-17l-16 24-15 25-36 12-35 13v69l40-6 41-5 35-27zm383-9c16-9 32-23 35-33l7-18-26-22-26-23-29 15c-16 8-41 15-56 15h-26l-34-34-34-34v-69l20-25c10-14 33-31 50-38l31-13 36 17 35 17 24-16 24-15v-19c0-25-28-47-77-60l-43-12-42 12c-24 6-58 22-77 36l-33 26-19 41-19 41v80l19 41 19 41 35 27c20 15 48 31 64 36l28 9 43-4c23-3 55-11 71-19zm304 13 38-10 38-34 38-34 11-39c7-22 12-56 12-76v-37l-20-38c-10-21-33-50-50-64l-31-26-41-12-41-11-45 12c-83 21-133 75-147 156l-6 42 10 39 11 39 32 38 33 37 40 14c49 17 69 18 118 4zm901-26 39-28 18-35c10-19 21-54 25-77l7-43h-293v-13c0-8 10-23 23-35l23-22 31-6 32-6 36 22 36 22 24-16 25-16v-19c0-23-26-46-75-67l-39-16-40 6c-22 4-57 17-78 29l-39 21-21 34c-11 18-24 50-29 70l-8 36 11 49 10 49 39 39 38 38 33 10 33 10 50-4 50-5 39-27zm-1343 445c-13-7-33-25-43-39l-19-25-1-33-1-32 20-27c11-15 31-31 45-36l25-9 37 7 37 7 20 32 20 32-5 39-5 39-23 23-23 24-30 5-30 6-24-13zm753 2c-12-4-31-21-43-36l-21-27v-29c0-16 6-41 14-57l15-27 26-12c34-16 60-15 94 3l28 14 13 31 13 32-9 36-9 36-34 23c-36 24-53 27-87 13zm449-4-31-14-11-21c-14-25-14-86-1-112 6-10 25-26 42-35l30-16 34 6 33 7 21 26 20 26v77l-27 29-28 30-25 5-25 6-32-14zm-453-508-25-13-17-35-18-36 11-37 10-38 32-20 32-20 29 6c17 3 40 12 53 20l22 15 9 33 9 32-9 30c-4 16-16 37-26 47l-18 19-35 5-34 5-25-13zm-422-17-33-29v-90l24-26 24-25 28-6 28-6 34 16 34 16 12 25c6 14 11 39 11 57l-1 32-12 15c-7 9-23 24-37 33l-24 17h-56l-32-29zm843 3c-17-14-31-30-31-35v-9h95c52 0 95 2 95 4 0 32-50 66-99 66h-29l-31-26z"/></g><g fill="#f28014" transform="matrix(.1 0 0 -.1 0 300)"><path d="M0 1500V0h3000v3000H0V1500zm780 398 44-23 19-26c11-15 23-45 27-67l7-40-5-101-5-101h-87v231l-25 24-24 25h-62l-24-25-25-24v-231h-87l-5 172c-3 94-4 178-1 185l5 13h77l6-9 5-10 33 14c17 8 43 14 57 15h26l44-22zm405 3 41-18 26-31c14-17 32-48 38-68l12-37-5-50-6-50-25-37-25-38-43-21-44-21h-85l-36 15c-21 9-46 23-56 33-24 21-52 77-60 118l-6 30 9 38c4 20 19 53 32 72l23 34 49 25 50 25h71l40-19zm419-9 31-18 3-21 3-22-26-17-27-17-32 11c-18 7-43 12-55 12h-23l-29-29-29-29v-77l18-22 17-23 31-9 31-9 31 15 32 15 25-6 25-6 6-25 6-25-13-17c-20-23-72-43-114-43h-36l-37 15c-68 29-104 76-117 151l-6 42 11 41 11 42 37 37 38 38 34 11 35 12 44-5 44-4 31-18zm319 9 37-19v28h90v-370h-88l-4 11-4 12-31-17-32-16h-72l-36 15c-48 20-71 41-94 87l-19 37v102l14 32c7 18 28 47 47 65l33 33 31 8c16 5 44 10 60 10l31 1 37-19zm462 0c78-36 115-95 115-182v-50l-20-39-20-39-35-27-36-27-48-5-48-4-31 16c-17 9-33 16-37 16-3 0-5-27-5-61v-60l-47 3-48 3v220c-1 121 1 226 3 233l4 12h74l10-10 11-11 34 15c45 20 76 19 124-3zm-337-633 2-238h-76l-10 10-10 10-37-15c-48-20-83-19-133 4l-41 19-26 33c-14 19-30 53-37 77l-11 42 7 38c12 69 46 113 111 146l32 16h76l29-15c15-8 30-15 32-15s4 26 4 58 3 62 7 66 23 6 43 4l35-3 3-237zM778 1424c20-8 52-29 70-46l32-32v-36l-26-16-25-17-33 34-34 34-23 5-24 6-3 42-3 42h16c8 0 32-7 53-16zm440-41 27-20 3-20 3-20-27-18-26-17-25 11c-13 6-38 11-56 11h-33l-20-15c-12-8-27-28-34-44l-12-31 6-26 7-26 26-24 26-24h34c18 0 42 5 53 12l19 12 25-13c14-8 27-20 30-28l6-14-10-19-9-18-41-16c-95-38-192 1-241 96l-19 37v45c0 25 5 57 11 73 13 36 66 92 104 109l30 14 58-3 57-3 28-21zm351-6 41-27 20-40 20-39v-112l-20-39-20-40-40-26-40-26-44-5-44-5-36 12c-20 6-51 24-68 38l-31 26-18 41-19 40v35c0 19 4 51 10 69l10 35 32 34c18 19 47 41 63 48l30 14 57-3 56-3 41-27zm812 19c65-27 119-108 119-176v-30h-279l-6-10-6-10 25-25 25-25h77l20 15c26 20 48 19 69-5l17-19-6-25-6-24-43-21-43-21h-79l-40 19-41 18-27 32-26 32-11 37c-5 20-10 46-10 57 0 69 45 141 109 175l36 19 46 1h47l33-14zM880 1181l10-20-7-18c-4-10-17-32-30-50l-24-31-34-16c-18-9-47-19-64-22l-31-6v82h15c9 0 29 7 45 15l28 15 22 35 22 35h37l11-19zm159 610-29-29v-77l18-21c9-12 28-27 41-34l23-12 32 6 33 6 20 23c11 12 23 34 27 48l6 27-11 30-10 31-24 15-24 16h-73l-29-29zm764 14-21-15-12-34-11-34 6-25c4-14 18-36 31-48l25-24h78l25 24 25 24 6 27 6 28-15 35-14 35-20 11c-12 6-36 11-54 11h-34l-21-15zm446-14-29-29v-31c0-16 5-41 11-55l12-25 33-16 33-16 26 7 25 6 25 30 25 30v24c0 33-25 81-49 94-11 5-34 10-51 10h-32l-29-29zm-406-478c-12-2-33-16-47-30l-26-26v-75l26-31 26-31h80l29 29 29 29v72l-27 29c-30 31-54 41-90 34zm-448-28-25-24v-92l25-24 24-25h83l29 29 29 29v74l-29 29-29 29h-83l-24-25zm858 16-33-21v-30h180v8c0 5-11 18-24 31l-23 22-34 5-34 5-32-20z"/></g><g fill="#575658" transform="matrix(.1 0 0 -.1 0 300)"><path d="M0 1500V0h3000v3000H0V1500zm780 398 44-23 19-26c11-15 23-45 27-67l7-40-5-101-5-101h-87v231l-25 24-24 25h-62l-24-25-25-24v-231h-87l-5 172c-3 94-4 178-1 185l5 13h77l6-9 5-10 33 14c17 8 43 14 57 15h26l44-22zm405 3 41-18 26-31c14-17 32-48 38-68l12-37-5-50-6-50-25-37-25-38-43-21-44-21h-85l-36 15c-21 9-46 23-56 33-24 21-52 77-60 118l-6 30 9 38c4 20 19 53 32 72l23 34 49 25 50 25h71l40-19zm419-9 31-18 3-21 3-22-26-17-27-17-32 11c-18 7-43 12-55 12h-23l-29-29-29-29v-77l18-22 17-23 31-9 31-9 31 15 32 15 25-6 25-6 6-25 6-25-13-17c-20-23-72-43-114-43h-36l-37 15c-68 29-104 76-117 151l-6 42 11 41 11 42 37 37 38 38 34 11 35 12 44-5 44-4 31-18zm319 9 37-19v28h90v-370h-88l-4 11-4 12-31-17-32-16h-72l-36 15c-48 20-71 41-94 87l-19 37v102l14 32c7 18 28 47 47 65l33 33 31 8c16 5 44 10 60 10l31 1 37-19zm462 0c78-36 115-95 115-182v-50l-20-39-20-39-35-27-36-27-48-5-48-4-31 16c-17 9-33 16-37 16-3 0-5-27-5-61v-60l-47 3-48 3v220c-1 121 1 226 3 233l4 12h74l10-10 11-11 34 15c45 20 76 19 124-3zm-337-633 2-238h-76l-10 10-10 10-37-15c-48-20-83-19-133 4l-41 19-26 33c-14 19-30 53-37 77l-11 42 7 38c12 69 46 113 111 146l32 16h76l29-15c15-8 30-15 32-15s4 26 4 58 3 62 7 66 23 6 43 4l35-3 3-237zM778 1424c20-8 52-29 70-46l32-32v-36l-26-16-25-17-33 34-34 34-23 5-24 6-3 42-3 42h16c8 0 32-7 53-16zm-88-29v-35l-25-6-25-6-30-34-30-35-1-22c-4-82 13-119 66-144l35-17v-32c0-43-8-46-55-25-48 22-79 51-102 94l-17 32v120l16 30c31 58 105 114 151 115h17v-35zm528-12 27-20 3-20 3-20-27-18-26-17-25 11c-13 6-38 11-56 11h-33l-20-15c-12-8-27-28-34-44l-12-31 6-26 7-26 26-24 26-24h34c18 0 42 5 53 12l19 12 25-13c14-8 27-20 30-28l6-14-10-19-9-18-41-16c-95-38-192 1-241 96l-19 37v45c0 25 5 57 11 73 13 36 66 92 104 109l30 14 58-3 57-3 28-21zm351-6 41-27 20-40 20-39v-112l-20-39-20-40-40-26-40-26-44-5-44-5-36 12c-20 6-51 24-68 38l-31 26-18 41-19 40v35c0 19 4 51 10 69l10 35 32 34c18 19 47 41 63 48l30 14 57-3 56-3 41-27zm812 19c65-27 119-108 119-176v-30h-279l-6-10-6-10 25-25 25-25h77l20 15c26 20 48 19 69-5l17-19-6-25-6-24-43-21-43-21h-79l-40 19-41 18-27 32-26 32-11 37c-5 20-10 46-10 57 0 69 45 141 109 175l36 19 46 1h47l33-14zM640 1219v-20l-17 3-18 3-3 18-3 17h41v-21zm240-38 10-20-7-18c-4-10-17-32-30-50l-24-31-34-16c-18-9-47-19-64-22l-31-6v82h15c9 0 29 7 45 15l28 15 22 35 22 35h37l11-19zm159 610-29-29v-77l18-21c9-12 28-27 41-34l23-12 32 6 33 6 20 23c11 12 23 34 27 48l6 27-11 30-10 31-24 15-24 16h-73l-29-29zm764 14-21-15-12-34-11-34 6-25c4-14 18-36 31-48l25-24h78l25 24 25 24 6 27 6 28-15 35-14 35-20 11c-12 6-36 11-54 11h-34l-21-15zm446-14-29-29v-31c0-16 5-41 11-55l12-25 33-16 33-16 26 7 25 6 25 30 25 30v24c0 33-25 81-49 94-11 5-34 10-51 10h-32l-29-29zm-406-478c-12-2-33-16-47-30l-26-26v-75l26-31 26-31h80l29 29 29 29v72l-27 29c-30 31-54 41-90 34zm-448-28-25-24v-92l25-24 24-25h83l29 29 29 29v74l-29 29-29 29h-83l-24-25zm858 16-33-21v-30h180v8c0 5-11 18-24 31l-23 22-34 5-34 5-32-20z"/></g><g fill="#020314" transform="matrix(.1 0 0 -.1 0 300)"><path d="M0 1500V0h3000v3000H0V1500zm617 409 11-11 20 11 21 11h87l46-29 46-29 16-44 17-43-3-120-3-120-47-3-48-3v208l-11 31-11 31-33 11-32 11-26-12c-37-17-41-30-47-159l-5-115h-90l-3 180c-1 98 0 185 2 192l5 13h77l11-11zm582-7 34-17 29-36 29-35 8-54 9-54-14-47-14-47-39-35-40-36-42-11-42-12-36 7c-102 19-171 102-171 204v36l19 40c20 44 51 76 96 99l30 16 55-1h55l34-17zm397-2 42-21 6-15 6-15-9-18c-5-9-20-23-34-30l-24-13-32 17-32 16-34-11-33-11-17-35-16-35 6-29 7-30 25-20 26-20h24c14 0 38 8 54 17l29 17 27-21 28-20v-46l-26-19c-14-11-45-24-68-29l-42-9-42 11c-23 6-57 22-76 36l-33 26-19 41-19 41v96l14 32c17 40 61 86 101 103l30 13 44 1h45l42-20zm323 9 33-11 11 11 11 11h74l6-16c8-20 8-338 0-358l-6-16h-86l-4 12-4 12-44-18-44-17-36 6c-19 4-52 16-72 28l-38 21-25 36-26 37-6 51-6 52 17 43 16 44 28 26c15 14 41 33 57 41l30 16h41c23 0 56-5 73-11zm297-4 6-15 28 15 29 15h79l34-15 35-14 30-34 29-34 14-47 13-48-11-49-12-49-22-30c-27-36-75-67-121-75l-33-6-42 14-42 15v-96l-14-11-15-12-38 3-38 3-3 230c-1 126 0 235 2 242l5 13h82l5-15zm-161-640v-240l-43-3-42-3-6 15-6 16-28-15-29-15h-92l-39 20-40 20-27 41-27 41-4 57-4 58 20 45 20 45 33 26c19 14 52 30 74 36l40 10 35-8c19-5 42-12 51-15l15-7-4 36c-2 19-1 46 2 61l7 25 47-3 47-3v-240zM794 1425l33-14 32-36c37-42 38-48 11-75l-20-20h-39l-12 21-11 21-44 20-45 19-44-21-43-21-17-36-17-36 5-41 6-41 31-27c16-16 37-28 45-28h15v-90h-15c-24 0-87 35-111 62-12 12-29 37-38 55l-16 32v106l19 40c20 44 60 84 105 108l30 14 53 1h54l33-13zm418-31c15-8 32-24 39-35l11-21-24-25-23-25-30 7c-16 3-44 8-62 12l-32 5-31-30-30-30v-73l24-24c13-13 35-27 49-30l25-7 31 16 31 17 18-10c10-6 24-17 31-25l13-16-6-23-5-23-36-17-36-17h-100l-39 20-39 20-24 32c-14 18-30 53-37 77l-12 44 7 36c13 73 80 145 148 161l32 8 40-5c22-3 52-12 67-19zm338 1c40-21 71-55 91-99l19-41v-76l-16-37c-8-20-29-52-47-70l-32-33-52-15-52-15-43 11c-24 7-58 23-76 37l-32 24-21 42-22 41 1 53v53l19 37 18 37 37 29 36 29 34 8 33 8 40-5c22-3 51-11 65-18zm865-12 40-28 23-45 22-44v-86h-280v-8c0-16 36-42 68-48l32-6 25 16c13 9 34 16 46 16h22l19-17c10-9 18-24 18-33v-17l-22-20c-13-11-34-26-48-33l-24-13h-106l-48 29-47 29-22 45-23 44v107l20 39 20 39 32 24c18 14 47 29 63 36l30 11 50-5 50-5 40-27zM640 1225v-25h-52l6 16c3 9 6 20 6 25v9h40v-25zm231-25 19-11v-56l-22-29c-13-16-32-37-43-46-22-19-105-48-117-41-5 2-8 24-8 49v44h52l28 31c15 17 35 40 44 50 19 22 21 22 47 9zm182 596-31-26-5-27-5-28 13-32 13-31 20-11c23-12 82-14 98-3 5 4 18 18 27 32l17 24v65l-22 26-23 26-36 5-35 6-31-26zm746-5-29-29v-74l29-29 29-29h68l27 28 27 28v33c0 18-5 41-10 52-13 23-61 49-90 49h-22l-29-29zm470 14-26-14-13-30-12-31 6-26c4-14 18-37 31-50l24-24h72l24 25 25 24v80l-22 25-23 26-30 5-30 5-26-15zm-452-506c-9-5-24-24-33-41l-16-30 7-35 6-34 32-19c38-24 59-25 97-5l28 15 12 35 12 36-12 30c-7 16-22 36-34 44l-20 15h-31c-16 0-38-5-48-11zm-418-18-29-29v-71l23-26 22-26 36-5 36-6 33 29 32 29v78l-31 28-31 28h-62l-29-29zm844 4-28-24 87-1h87l-5 14c-7 18-48 36-84 36h-29l-28-25z"/></g></g></svg>